<svg width="64" height="64" viewBox="0 0 64 64" fill="none" xmlns="http://www.w3.org/2000/svg">
<rect width="64" height="64" transform="translate(0.230591 0.956055)" fill="#00A538"/>
<path d="M41.205 32.956H38.4957C36.2513 32.956 34.4318 31.1365 34.4318 28.8921V26.1828C34.4318 23.9384 36.2513 22.1189 38.4957 22.1189H41.205C43.4494 22.1189 45.2689 20.2994 45.2689 18.055V15.3457C45.2689 13.1012 43.4494 11.2817 41.205 11.2817H38.4957C36.2513 11.2817 34.4318 13.1012 34.4318 15.3457V18.055C34.4318 20.2994 32.6123 22.1189 30.3678 22.1189H27.6586C25.4141 22.1189 23.5946 23.9384 23.5946 26.1828V28.8921C23.5946 31.1365 21.7751 32.956 19.5307 32.956H16.8214C14.577 32.956 12.7575 34.7755 12.7575 37.02V39.7292C12.7575 41.9737 14.577 43.7932 16.8214 43.7932H30.3678C32.6123 43.7932 34.4318 45.6127 34.4318 47.8571V50.5664C34.4318 52.8108 36.2513 54.6303 38.4957 54.6303H41.205C43.4494 54.6303 45.2689 52.8108 45.2689 50.5664V37.02C45.2689 34.7755 43.4494 32.956 41.205 32.956Z" fill="white"/>
</svg>
