<svg width="64" height="64" viewBox="0 0 64 64" fill="none" xmlns="http://www.w3.org/2000/svg">
<path d="M41.7434 32.956H39.0341C36.7897 32.956 34.9702 31.1365 34.9702 28.8921V26.1828C34.9702 23.9384 36.7897 22.1189 39.0341 22.1189H41.7434C43.9879 22.1189 45.8073 20.2994 45.8073 18.055V15.3457C45.8073 13.1012 43.9879 11.2817 41.7434 11.2817H39.0341C36.7897 11.2817 34.9702 13.1012 34.9702 15.3457V18.055C34.9702 20.2994 33.1507 22.1189 30.9063 22.1189H28.197C25.9525 22.1189 24.133 23.9384 24.133 26.1828V28.8921C24.133 31.1365 22.3136 32.956 20.0691 32.956H17.3598C15.1154 32.956 13.2959 34.7755 13.2959 37.02V39.7292C13.2959 41.9737 15.1154 43.7932 17.3598 43.7932H30.9063C33.1507 43.7932 34.9702 45.6127 34.9702 47.8571V50.5664C34.9702 52.8108 36.7897 54.6303 39.0341 54.6303H41.7434C43.9879 54.6303 45.8073 52.8108 45.8073 50.5664V37.02C45.8073 34.7755 43.9879 32.956 41.7434 32.956Z" fill="#00A538"/>
</svg>
